<svg width="112" height="60" viewBox="0 0 112 60" fill="none" xmlns="http://www.w3.org/2000/svg">
<rect x="2" y="1.99998" width="86" height="56" rx="6" fill="white" stroke="black" stroke-width="4"/>
<rect x="2" y="1.99998" width="70" height="56" rx="6" fill="white" stroke="black" stroke-width="4"/>
<path d="M72 1.99998H82C85.3137 1.99998 88 4.68628 88 7.99998V52C88 55.3137 85.3137 58 82 58H72V1.99998Z" fill="black" stroke="black" stroke-width="4"/>
<mask id="path-4-outside-1_14_11" maskUnits="userSpaceOnUse" x="76" y="17" width="36" height="27" fill="black">
<rect fill="white" x="76" y="17" width="36" height="27"/>
<path fill-rule="evenodd" clip-rule="evenodd" d="M100.314 21.5858L105.971 27.2426L107.385 28.6569C108.166 29.4379 108.166 30.7042 107.385 31.4853L100.314 38.5563C99.5327 39.3374 98.2663 39.3374 97.4853 38.5563C96.7042 37.7753 96.7042 36.509 97.4853 35.7279L101.042 32.1716H82C80.8954 32.1716 80 31.2761 80 30.1716C80 29.067 80.8954 28.1716 82 28.1716H101.243L97.4853 24.4142C96.7042 23.6332 96.7042 22.3668 97.4853 21.5858C98.2663 20.8047 99.5327 20.8047 100.314 21.5858Z"/>
</mask>
<path fill-rule="evenodd" clip-rule="evenodd" d="M100.314 21.5858L105.971 27.2426L107.385 28.6569C108.166 29.4379 108.166 30.7042 107.385 31.4853L100.314 38.5563C99.5327 39.3374 98.2663 39.3374 97.4853 38.5563C96.7042 37.7753 96.7042 36.509 97.4853 35.7279L101.042 32.1716H82C80.8954 32.1716 80 31.2761 80 30.1716C80 29.067 80.8954 28.1716 82 28.1716H101.243L97.4853 24.4142C96.7042 23.6332 96.7042 22.3668 97.4853 21.5858C98.2663 20.8047 99.5327 20.8047 100.314 21.5858Z" fill="white"/>
<path d="M105.971 27.2426L108.799 24.4142L108.799 24.4142L105.971 27.2426ZM100.314 21.5858L97.4853 24.4142L97.4853 24.4142L100.314 21.5858ZM107.385 28.6569L110.213 25.8284L110.213 25.8284L107.385 28.6569ZM107.385 31.4853L104.556 28.6569L104.556 28.6569L107.385 31.4853ZM100.314 38.5563L103.142 41.3848L103.142 41.3848L100.314 38.5563ZM97.4853 38.5563L94.6569 41.3848L94.6569 41.3848L97.4853 38.5563ZM97.4853 35.7279L100.314 38.5564L100.314 38.5563L97.4853 35.7279ZM101.042 32.1716L103.87 35L110.698 28.1716H101.042V32.1716ZM101.243 28.1716V32.1716H110.899L104.071 25.3431L101.243 28.1716ZM97.4853 24.4142L94.6569 27.2426L94.6569 27.2426L97.4853 24.4142ZM97.4853 21.5858L100.314 24.4142L100.314 24.4142L97.4853 21.5858ZM108.799 24.4142L103.142 18.7574L97.4853 24.4142L103.142 30.0711L108.799 24.4142ZM110.213 25.8284L108.799 24.4142L103.142 30.0711L104.556 31.4853L110.213 25.8284ZM110.213 34.3137C112.556 31.9706 112.556 28.1716 110.213 25.8284L104.556 31.4853C103.775 30.7042 103.775 29.4379 104.556 28.6569L110.213 34.3137ZM103.142 41.3848L110.213 34.3137L104.556 28.6569L97.4853 35.7279L103.142 41.3848ZM94.6569 41.3848C97 43.7279 100.799 43.7279 103.142 41.3848L97.4853 35.7279C98.2663 34.9469 99.5327 34.9469 100.314 35.7279L94.6569 41.3848ZM94.6569 32.8995C92.3137 35.2426 92.3137 39.0416 94.6569 41.3848L100.314 35.7279C101.095 36.509 101.095 37.7753 100.314 38.5564L94.6569 32.8995ZM98.2132 29.3431L94.6569 32.8995L100.314 38.5563L103.87 35L98.2132 29.3431ZM101.042 28.1716H82V36.1716H101.042V28.1716ZM82 28.1716C83.1046 28.1716 84 29.067 84 30.1716H76C76 33.4853 78.6863 36.1716 82 36.1716V28.1716ZM84 30.1716C84 31.2761 83.1046 32.1716 82 32.1716V24.1716C78.6863 24.1716 76 26.8579 76 30.1716H84ZM82 32.1716H101.243V24.1716H82V32.1716ZM94.6569 27.2426L98.4142 31L104.071 25.3431L100.314 21.5858L94.6569 27.2426ZM94.6569 18.7574C92.3137 21.1005 92.3137 24.8995 94.6569 27.2426L100.314 21.5858C101.095 22.3668 101.095 23.6332 100.314 24.4142L94.6569 18.7574ZM103.142 18.7574C100.799 16.4142 97 16.4142 94.6569 18.7574L100.314 24.4142C99.5327 25.1953 98.2663 25.1953 97.4853 24.4142L103.142 18.7574Z" fill="black" mask="url(#path-4-outside-1_14_11)"/>
</svg>
