<svg width="31" height="36" viewBox="0 0 31 36" fill="none" xmlns="http://www.w3.org/2000/svg">
<mask id="path-1-outside-1_106_195" maskUnits="userSpaceOnUse" x="0" y="0" width="31" height="36" fill="black">
<rect fill="white" width="31" height="36"/>
<path fill-rule="evenodd" clip-rule="evenodd" d="M10.7273 7.3L15.4545 6V16.6364L26.0909 17.8182L24.9091 29.6364L15.4545 32H10.7273L9.54545 30.8182L6 21.3636L10.7273 20.1818V7.3Z"/>
</mask>
<path fill-rule="evenodd" clip-rule="evenodd" d="M10.7273 7.3L15.4545 6V16.6364L26.0909 17.8182L24.9091 29.6364L15.4545 32H10.7273L9.54545 30.8182L6 21.3636L10.7273 20.1818V7.3Z" fill="white"/>
<path d="M15.4545 6H19.4545V0.751506L14.3939 2.14318L15.4545 6ZM10.7273 7.3L9.66665 3.44318L6.72727 4.25151V7.3H10.7273ZM15.4545 16.6364H11.4545V20.2165L15.0128 20.6119L15.4545 16.6364ZM26.0909 17.8182L30.0711 18.2162L30.4647 14.2795L26.5326 13.8426L26.0909 17.8182ZM24.9091 29.6364L25.8792 33.5169L28.6092 32.8344L28.8892 30.0344L24.9091 29.6364ZM15.4545 32V36H15.947L16.4247 35.8806L15.4545 32ZM10.7273 32L7.89885 34.8284L9.07042 36H10.7273V32ZM9.54545 30.8182L5.80014 32.2227L6.10436 33.0339L6.71703 33.6466L9.54545 30.8182ZM6 21.3636L5.02986 17.4831L0.680534 18.5704L2.25468 22.7681L6 21.3636ZM10.7273 20.1818L11.6974 24.0624L14.7273 23.3049V20.1818H10.7273ZM14.3939 2.14318L9.66665 3.44318L11.7879 11.1568L16.5152 9.85682L14.3939 2.14318ZM19.4545 16.6364V6H11.4545V16.6364H19.4545ZM26.5326 13.8426L15.8963 12.6608L15.0128 20.6119L25.6492 21.7937L26.5326 13.8426ZM28.8892 30.0344L30.0711 18.2162L22.1108 17.4202L20.9289 29.2383L28.8892 30.0344ZM16.4247 35.8806L25.8792 33.5169L23.9389 25.7558L14.4844 28.1194L16.4247 35.8806ZM10.7273 36H15.4545V28H10.7273V36ZM13.5557 29.1716L12.3739 27.9898L6.71703 33.6466L7.89885 34.8284L13.5557 29.1716ZM13.2908 29.4137L9.74532 19.9591L2.25468 22.7681L5.80014 32.2227L13.2908 29.4137ZM6.97014 25.2442L11.6974 24.0624L9.75713 16.3012L5.02986 17.4831L6.97014 25.2442ZM6.72727 7.3V20.1818H14.7273V7.3H6.72727Z" fill="black" mask="url(#path-1-outside-1_106_195)"/>
</svg>
