<svg width="100" height="80" viewBox="0 0 100 80" fill="none" xmlns="http://www.w3.org/2000/svg">
<path d="M94.6833 55.4223L52.6833 76.4223C50.9941 77.2669 49.0059 77.2669 47.3167 76.4223L5.31672 55.4223C3.28401 54.4059 2 52.3284 2 50.0557V29.9443C2 27.6716 3.28401 25.5941 5.31672 24.5777L47.3167 3.57771C49.0059 2.73313 50.9941 2.73313 52.6833 3.57771L94.6833 24.5777C96.716 25.5941 98 27.6716 98 29.9443V50.0557C98 52.3284 96.716 54.4059 94.6833 55.4223Z" fill="white" stroke="black" stroke-width="4"/>
<path d="M51.118 1.11803L94.4098 22.7639C96.2525 23.6852 96.2524 26.3148 94.4098 27.2361L51.118 48.882C50.4142 49.2339 49.5858 49.2339 48.882 48.882L5.59017 27.2361C3.74755 26.3148 3.74755 23.6852 5.59017 22.7639L48.882 1.11803C49.5858 0.766125 50.4142 0.766125 51.118 1.11803Z" fill="black" stroke="black"/>
</svg>
