<svg width="18" height="22" viewBox="0 0 18 22" fill="none" xmlns="http://www.w3.org/2000/svg">
<mask id="path-1-inside-1_98_186" fill="white">
<path fill-rule="evenodd" clip-rule="evenodd" d="M0.176462 0.00160943L17.4244 12.9054L8.09605 13.7187L8.09603 13.7187L2.72746 21.3906L0.176462 0.00160943Z"/>
</mask>
<path fill-rule="evenodd" clip-rule="evenodd" d="M0.176462 0.00160943L17.4244 12.9054L8.09605 13.7187L8.09603 13.7187L2.72746 21.3906L0.176462 0.00160943Z" fill="white"/>
<path d="M17.4244 12.9054L17.5981 14.8978L22.8179 14.4427L18.6225 11.3039L17.4244 12.9054ZM0.176462 0.00160943L1.37455 -1.59982L-2.36212 -4.39535L-1.80946 0.238464L0.176462 0.00160943ZM8.09605 13.7187L6.95881 15.3639L7.55172 15.7738L8.26977 15.7112L8.09605 13.7187ZM8.09603 13.7187L9.23326 12.0735L7.59748 10.9428L6.45738 12.5721L8.09603 13.7187ZM2.72746 21.3906L0.741535 21.6275L1.36205 26.8302L4.3661 22.5373L2.72746 21.3906ZM18.6225 11.3039L1.37455 -1.59982L-1.02162 1.60304L16.2263 14.5068L18.6225 11.3039ZM8.26977 15.7112L17.5981 14.8978L17.2507 10.9129L7.92232 11.7263L8.26977 15.7112ZM6.95879 15.3639L6.95881 15.3639L9.23328 12.0735L9.23326 12.0735L6.95879 15.3639ZM6.45738 12.5721L1.08882 20.244L4.3661 22.5373L9.73467 14.8654L6.45738 12.5721ZM4.71339 21.1538L2.16239 -0.235245L-1.80946 0.238464L0.741535 21.6275L4.71339 21.1538Z" fill="black" mask="url(#path-1-inside-1_98_186)"/>
</svg>
